<?xml version="1.0" encoding="utf-8"?>
<!-- Generator: Adobe Illustrator 26.0.3, SVG Export Plug-In . SVG Version: 6.00 Build 0)  -->
<svg version="1.1" id="Layer_1" xmlns="http://www.w3.org/2000/svg" xmlns:xlink="http://www.w3.org/1999/xlink" x="0px" y="0px"
	 viewBox="0 0 255.1 113.4" style="enable-background:new 0 0 255.1 113.4;" xml:space="preserve">
<style type="text/css">
	.st0{fill:#C8A053;}
</style>
<g>
	<path class="st0" d="M179.2,89.1c-0.7-1.5-0.4-3.1-0.1-4.6c1.4-6.2,2.7-12.3,4.4-18.4c3.4-12.7,7-25.3,10.5-38
		c0.2-0.6,0.3-1.3,0.5-1.9c-0.1-0.1-0.1-0.1-0.2-0.2c-0.4,0.2-0.8,0.4-1.1,0.6c-2.3,1.7-4.3,3.7-6.1,5.8
		c-6.7,7.7-12.3,16.1-17.4,24.9c-1.6,2.7-3.1,5.5-4.7,8.3c-0.2,0.4-0.4,0.7-0.6,1c-0.2,0.2-0.6,0.4-0.8,0.3
		c-0.2-0.1-0.4-0.5-0.4-0.7c0.2-1.3,0.4-2.5,0.7-3.7c2.4-10,4.8-19.9,7.2-29.9c0.3-1.1,0.5-2.2,0.6-3.3c0.1-1.6-0.5-2-1.9-1.4
		c-1.9,0.7-3.3,2-4.7,3.3c-5,5.2-8.9,11.2-11.2,18c-0.7,2.2-1.1,4.4-0.8,6.8c0.4,2.7,1.9,4.3,4.7,4.5c0.7,0,1.4,0,2,0
		c0.3,0,0.5,0.1,0.8,0.2c-0.2,0.2-0.4,0.5-0.6,0.5c-4.1,1.1-7.6-1.5-7.8-5.7c-0.1-3.4,0.6-6.5,2-9.6c2.7-6.1,6.4-11.6,11.3-16.3
		c1.2-1.2,2.6-2.2,4.3-2.8c1.9-0.7,3-0.1,3.2,1.9c0.1,1.4-0.1,2.9-0.4,4.3c-1.8,7.8-3.8,15.6-5.7,23.5c-0.4,1.5-0.7,3-1,4.4
		c0,0.2,0,0.4,0.1,0.6c0.2-0.4,0.5-0.7,0.7-1.1c5-8.7,10.3-17.2,16.7-25c2.5-3,5-6,8-8.5c0.8-0.7,1.7-1.3,2.6-1.8
		c0.4-0.2,1.2-0.4,1.5-0.1c0.4,0.3,0.6,1.1,0.5,1.6c-0.2,1.5-0.6,3.1-1,4.6c-0.2,0.9-0.5,1.8-0.7,2.8c0.2,0,0.5-0.1,0.6,0
		c0.6,0.7,1.4,0.5,2.1,0.4c4-0.5,8-1.1,12-1.7c0.3,0,0.7-0.4,0.7-0.7c0.7-2.5,1.3-4.9,1.9-7.4c0.1-0.5,0-1.3,0.7-1.2
		c0.8,0.1,0.4,1,0.3,1.4c-0.4,2.1-0.9,4.2-1.3,6.4c-0.1,0.4-0.1,0.7-0.2,1.3c1.1-0.1,2-0.3,3-0.4c6-0.8,11.9-1.6,17.9-2.2
		c2.8-0.3,5.6-0.3,8.4-0.5c0.2,0,0.5,0,0.6,0c0.2,0.1,0.4,0.3,0.5,0.5c-0.2,0.2-0.3,0.5-0.5,0.5c-0.9,0.1-1.7,0.1-2.6,0.1
		c-5.6,0-11.2,0.5-16.8,1.3c-3.4,0.5-6.9,1-10.3,1.5c-0.2,0-0.6,0.3-0.6,0.5c-2.7,10.3-5.4,20.6-8,30.9c-0.8,3-1.4,6.1-2,9.2
		c-0.2,0.9-0.2,1.9-0.2,2.9c0,0.4,0.3,0.8,0.4,1.2c0.1,0.2,0.1,0.5,0.1,0.8c-0.3,0-0.7,0-0.8-0.1c-0.3-0.3-0.6-0.8-0.6-1.2
		c0-1.7-0.1-3.5,0.3-5.2c1.3-5.8,2.8-11.5,4.2-17.3c0.5-2.2,1.1-4.5,1.6-6.8c-0.3,0.4-0.5,0.8-0.8,1.2c-1.2,1.6-2.3,3.3-3.6,4.8
		c-1.2,1.4-2.7,1.1-3.6-0.4c-0.4-0.7-0.6-1.5-1-2.4c-0.3,0.2-0.5,0.4-0.8,0.6c-0.8,0.7-1.5,1.5-2.4,2.1c-0.2,0.2-0.7,0.3-0.9,0.2
		c-0.2-0.1-0.4-0.6-0.4-0.9c0-0.3,0.1-0.7,0.2-0.9c0.8-1.6,1.5-3.2,2.4-4.8c0.7-1.1,2-1.3,2.9-0.6c0.2,0.2,0.4,0.6,0.4,0.9
		c0,0.2-0.5,0.4-0.8,0.4c-1.2-0.3-1.7,0.4-2.2,1.3c-0.5,1-1,2-1.4,3.1c0.2-0.1,0.3-0.2,0.5-0.3c0.7-0.6,1.4-1.2,2.1-1.8
		c0.9-0.7,1.1-0.7,1.4,0.4c0.1,0.4,0.2,0.8,0.4,1.2c0.2,0.5,0.4,1,0.7,1.4c0.5,0.8,1.1,0.9,1.7,0.2c0.9-1,1.8-2.1,2.6-3.2
		c1.4-1.9,2.2-4.1,2.8-6.4c0.9-3.2,1.9-6.3,2.8-9.5c0.1-0.3,0.2-0.6,0.3-1.1c-1.1,0.2-2,0.3-2.9,0.5c-2.9,0.5-5.8,1-8.7,1.3
		c-1.2,0.2-2.4,0-3.6,0c-0.6,2-1.1,4-1.6,5.9c-3.5,13.1-7,26.2-10.4,39.4c-0.6,2.1-0.8,4.4-1.1,6.6c-0.1,0.6,0.1,1.2,0.2,1.8
		C180.1,89.1,179.7,89.1,179.2,89.1z"/>
	<path class="st0" d="M60.3,48.4c-2.2,1-3.5,3-5.2,4.4c-1.6,1.4-3.2,2.8-4.8,4.2c-0.3,0.2-0.6,0.4-0.9,0.6c-1.3,0.7-2.1,0.3-2.1-1.1
		c0-1.2,0.1-2.4,0.2-3.6c0.1-0.9,0.3-1.9,0.4-3c-0.9,0.8-1.6,1.5-2.5,2.1c-1.9,1.5-3.8,2.9-6.2,3.4c-0.3,0.1-0.6,0.6-0.8,0.9
		c-1.3,2.5-2.5,5-3.8,7.5C31.5,70,28.3,76.2,25,82.3c-0.6,1.2-1.4,2.4-2.2,3.5c-0.5,0.7-1.1,1.3-2,1.2c-0.9-0.1-1.4-0.8-1.7-1.7
		c-0.6-1.8-0.7-3.7-0.6-5.6c0.4-11.8,3.3-23.2,6-34.6c0.9-3.6,1.5-7.3,2.3-11c0-0.2,0.1-0.3,0.1-0.5c0-2.8-1-3.4-3.4-2.8
		c-3.2,0.8-5.9,2.6-8.5,4.6c-4.5,3.5-8.2,7.8-10.4,13.1c-0.8,1.9-1.3,3.9-1.2,5.9c0,3,2.3,5.5,5.4,5.7c2.2,0.2,4.2-0.3,6.1-1.3
		c0.5-0.2,0.8-0.7,1.3-1c0.2-0.1,0.5-0.1,0.8-0.2c0,0.3,0.1,0.6,0,0.8c0,0.1-0.2,0.3-0.4,0.4c-2.4,1.5-5,2.3-7.9,2.1
		c-4.1-0.3-6.8-3.8-6.2-7.9c0.7-4.8,2.8-9,5.9-12.7c3.4-4,7.3-7.4,12.1-9.6c1.3-0.6,2.8-1,4.3-1.3c1.8-0.3,2.9,0.5,3.3,2.3
		c0.4,1.9,0.2,3.8-0.2,5.7c-1.5,6.9-3.1,13.7-4.5,20.6c-1.3,6.2-2.4,12.5-2.8,18.9c-0.1,2.2,0,4.4,0.1,6.6c0,0.2,0,0.4,0.1,0.5
		c0.3,0.4,0.6,0.8,0.9,1.2c0.3-0.3,0.7-0.6,0.9-0.9c5.5-8.8,10.1-18.2,14.7-27.4c0.2-0.5,0.5-1,0.7-1.5c0-0.1,0-0.1,0.1-0.3
		c-2.8-1.6-2.3-4.1-1.7-6.5c1.2-5,3.5-9.6,6.5-13.7c2.1-2.9,4.5-5.7,6.8-8.5c0.6-0.8,1.3-1.6,1.9-2.3c0.2-0.2,0.3-0.4,0.5-0.5
		c0.2-0.1,0.5-0.1,0.7,0c0.2,0.1,0.3,0.4,0.3,0.6c-0.1,0.6-0.3,1.2-0.5,1.7c-0.9,2.4-1.9,4.8-2.8,7.2c-0.3,0.9-0.1,1.3,0.9,1.3
		c2.4-0.2,4.7-0.4,7.1-0.8c1.9-0.2,3.7-0.6,5.6-0.9c0.6-0.1,0.9-0.3,1-0.9c0.6-2.5,1.2-4.9,1.9-7.4c0.1-0.4,0.6-1.2,0.7-1.1
		c0.7,0.2,0.4,0.9,0.4,1.3c-0.4,2.2-0.9,4.3-1.4,6.4c-0.1,0.4-0.1,0.7-0.2,1.3c1-0.1,1.9-0.3,2.9-0.4c6.1-0.8,12.1-1.6,18.2-2.3
		c2.8-0.3,5.6-0.3,8.4-0.5c0.2,0,0.5,0,0.7,0.1c0.2,0.1,0.4,0.3,0.4,0.5c0,0.2-0.3,0.4-0.4,0.5c-0.4,0.1-0.9,0.1-1.3,0.1
		c-6.1-0.1-12.1,0.5-18.2,1.3c-3.4,0.5-6.9,1-10.3,1.5c-0.2,0-0.6,0.3-0.6,0.6c-2.5,9.4-4.9,18.9-7.3,28.3
		c-0.9,3.5-1.7,7.1-2.5,10.7c-0.2,1.1-0.3,2.2-0.3,3.3c0,0.7,0,1.5,0.6,2.1c0.1,0.1,0.1,0.5,0,0.6c-0.1,0.1-0.6,0.2-0.6,0
		c-0.3-0.4-0.8-0.8-0.8-1.3c0-1.8-0.1-3.6,0.3-5.2c1.3-5.8,2.8-11.5,4.2-17.3C59.1,53,59.7,50.7,60.3,48.4z M63.6,33.7
		c-0.5,0.1-0.9,0.1-1.2,0.1c-4.3,0.7-8.6,1.8-13,1.7c-0.6,0-0.8,0.2-1.1,0.7c-2.1,4.6-4.3,9.2-6.5,13.8c-0.6,1.3-1.3,2.5-2,4
		c0.5-0.2,0.8-0.2,1-0.3c2.5-1,4.3-2.8,6.3-4.5c0.8-0.7,1.5-1.5,1.7-2.6c0.1-0.5,0.3-1,0.5-1.5c0.2-0.5,0.4-1.1,1.1-0.9
		c0.6,0.2,0.3,0.9,0.2,1.3c-0.5,2.5-1.1,5.1-1.7,7.6c-0.2,1-0.3,2.1-0.4,3.3c0.6-0.2,1-0.3,1.3-0.6c0.8-0.6,1.6-1.1,2.3-1.8
		c2.3-2.1,4.6-4.3,6.9-6.4c0.4-0.3,0.7-0.8,0.8-1.3c0.7-2.4,1.4-4.8,2.1-7.2C62.4,37.3,63,35.6,63.6,33.7z M50.6,27.2
		c-0.1,0-0.1,0-0.2-0.1c-0.3,0.3-0.6,0.6-0.9,1c-4.9,5.5-9.1,11.5-11.6,18.6c-0.6,1.8-1.2,3.7-1,5.6c0.1,0.6,0.5,1.2,0.8,1.8
		c0.2,0.3,0.6,0.3,0.8-0.2c0.3-0.5,0.5-1.1,0.8-1.6c2.9-6.3,5.8-12.5,8.7-18.8C49,31.4,49.8,29.3,50.6,27.2z"/>
	<path class="st0" d="M106.7,45.7c-0.4,0.5-0.8,1-1.2,1.5c-1.5,2.6-2.9,5.1-4.4,7.7c-0.1,0.3-0.3,0.6-0.5,0.8
		c-0.2,0.2-0.5,0.3-0.8,0.3c-0.2-0.1-0.4-0.4-0.4-0.7c0.1-1,0.4-2,0.6-3c0.2-0.9,0.5-1.8,0.6-2.7c-1.5,1.4-3,2.8-4.5,4.2
		c-1.2,1.1-2.5,2.3-3.8,3.3c-0.6,0.4-1.4,0.8-2,0.7c-0.8-0.2-0.8-1.2-0.7-1.9c0.1-1.7,0.3-3.4,0.5-5.1c0-0.2,0.1-0.5,0.1-0.8
		c-0.7,0.5-1.3,1.1-1.9,1.5c-1.8,1.2-3,0.8-3.9-1.2c-0.1-0.3-0.3-0.6-0.5-1c-0.4,0.5-0.7,1-1,1.4c-0.7,0.8-1.4,1.7-2.2,2.4
		c-0.6,0.7-1.2,0.6-1.6-0.2c-0.2-0.4-0.2-1-0.3-1.5c0-0.4,0.1-0.9,0.1-1.3c0-0.1,0-0.3,0-0.5c-0.2,0.3-0.4,0.4-0.5,0.6
		c-1.5,2.2-2.9,4.4-4.4,6.5c-0.1,0.2-0.2,0.4-0.3,0.5c-0.3,0.2-0.6,0.4-0.9,0.5c-0.2-0.3-0.5-0.7-0.5-1c0-0.8,0.2-1.7,0.4-2.5
		c0.2-0.8,0.4-1.7,0.6-2.7c-0.9,1-1.6,1.9-2.4,2.7c-1.4,1.4-2.9,1.2-3.9-0.6c-0.3-0.6-0.5-1.4-0.8-2.2c-0.3,0.2-0.5,0.4-0.8,0.6
		c-0.8,0.7-1.5,1.5-2.4,2.1c-0.2,0.2-0.7,0.3-0.9,0.2c-0.2-0.2-0.5-0.7-0.4-0.9c0.5-2.2,1.4-4.2,2.9-5.9c0.8-0.9,1.9-1,2.7-0.3
		c0.2,0.2,0.4,0.6,0.4,0.8c-0.1,0.2-0.5,0.5-0.7,0.4c-1.2-0.3-1.8,0.5-2.3,1.4c-0.4,0.9-0.9,1.7-1.3,2.6c0,0.1-0.1,0.2-0.2,0.5
		c1-0.9,1.9-1.6,2.7-2.4c0.8-0.7,1.1-0.6,1.4,0.4c0.3,0.9,0.6,1.7,1.1,2.5c0.4,0.8,1,0.8,1.6,0.2c1.8-1.8,3.4-3.8,4.1-6.3
		c0.2-0.6,0.3-1.2,0.6-1.8c0.1-0.2,0.4-0.5,0.6-0.4c0.2,0,0.5,0.4,0.5,0.6c0,0.8-0.1,1.7-0.2,2.5c-0.4,1.8-0.8,3.6-1.3,5.4
		c0,0.2-0.1,0.4,0,0.6c0.5-0.7,0.9-1.4,1.4-2.1c1.1-1.6,2.2-3.2,3.4-4.8c0.2-0.3,0.7-0.4,1-0.6c0.1,0.3,0.4,0.7,0.4,1
		c0,0.7-0.1,1.4-0.1,2.1c0,0.5,0,1.1,0,1.8c0.3-0.3,0.5-0.4,0.6-0.5c0.9-1.1,1.7-2.2,2.6-3.2c0.2-0.3,0.5-0.4,0.9-0.7
		c0.2,0.9,0.3,1.6,0.6,2.2c0.6,1.5,1.4,1.8,2.7,0.9c1.5-1,2.8-2.3,3.3-4.2c0.2-0.6,0.4-1.2,0.6-1.7c0.2-0.3,0.6-0.4,0.9-0.6
		c0.1,0.3,0.3,0.7,0.2,1c-0.4,1.9-1,3.8-1.4,5.7c-0.3,1.5-0.5,3.1-0.7,4.7c0,0.2,0,0.5,0,0.9c0.6-0.3,1-0.4,1.4-0.7
		c2.4-2,4.6-4.2,7.1-6.1c1.7-1.4,2.8-3.2,3.2-5.4c0.1-0.5,0.3-1,0.5-1.5c0.1-0.4,0.3-0.8,0.9-0.6c0.6,0.2,0.6,0.5,0.5,1
		c-0.7,2.3-1.3,4.6-2,7c0,0.1,0,0.2,0.1,0.3c0.2-0.4,0.4-0.9,0.7-1.3c0.9-1.5,1.8-2.9,2.9-4.3c0.3-0.4,1-0.6,1.4-0.6
		c0.3,0.1,0.7,0.8,0.8,1.2c0.2,1.4,0.2,2.8,0.4,4.2c0.1,0.6,0.2,1.2,0.3,1.8c0.1,0.5,0.4,0.7,0.9,0.4c0.8-0.6,1.6-1.2,2.4-1.9
		c0.9-0.8,1.6-1.6,2.5-2.4c0.2-0.2,0.6-0.2,0.9-0.3c-0.1,0.3,0,0.8-0.2,0.9c-1.5,1.5-3,3.1-4.7,4.3c-1.5,1.1-2.7,0.7-3-1.2
		c-0.3-1.5-0.3-3.1-0.4-4.6c0-0.3-0.1-0.6-0.1-1C106.9,45.8,106.8,45.8,106.7,45.7z"/>
	<path class="st0" d="M227.1,47c0.6-0.4,1.3-0.7,1.9-1.1c0.6-0.4,1.2-0.9,1.9-1.2c0.4-0.2,0.9-0.2,1.4-0.3c0,0.5,0.1,0.9,0,1.4
		c-0.4,1.6-0.9,3.1-1.2,4.7c-0.5,2.2-1,4.4-1.5,6.7c-0.2,0.8-0.1,1.7-0.1,2.5c0.1,0,0.2,0.1,0.3,0.1c0.4-0.4,0.9-0.7,1.3-1.2
		c2.5-2.9,4.4-6.2,6.2-9.5c0.8-1.4,1.2-3,1.9-4.5c0.8-1.4,1.7-2.7,2.6-4.1c0.1-0.1,0.2-0.3,0.3-0.4c0.4-0.4,0.9-0.9,1.5-0.6
		c0.6,0.4,0.6,1.1,0.4,1.7c-0.8,2.5-2.1,4.5-4.1,6.3c-0.4,0.4-0.8,0.9-1,1.5c-0.3,1.4-0.5,2.9-0.7,4.3c-0.1,1.2,0.6,1.6,1.6,0.9
		c1.4-0.9,2.7-1.9,3.9-3c1.2-1,2.2-2.2,3.3-3.3c0.2-0.2,0.4-0.4,0.6-0.5c0.2-0.1,0.5-0.1,0.8-0.1c0,0.3,0.1,0.6-0.1,0.8
		c-0.2,0.3-0.5,0.6-0.7,0.9c-2.1,2.1-4,4.4-6.5,6c-0.4,0.3-0.8,0.5-1.3,0.7c-1.4,0.6-2.7-0.1-3-1.5c-0.1-0.6-0.2-1.2-0.3-2
		c-0.5,0.8-0.9,1.5-1.4,2.2c-1.2,1.7-2.4,3.3-3.6,4.9c-0.2,0.2-0.4,0.5-0.6,0.7c-0.5,0.4-0.9,0.9-1.6,0.6c-0.7-0.3-1-1-0.9-1.7
		c0.1-1.3,0.1-2.6,0.4-3.8c0.7-2.9,1.5-5.7,2.2-8.6c0-0.1,0.1-0.3,0.2-0.6c-0.7,0.5-1.3,0.9-1.9,1.2c-1.1,0.5-2.2,1-3.3,1.5
		c-0.2,0.1-0.4,0.3-0.6,0.5c-2,2.5-3.9,5.1-6,7.6c-0.6,0.8-1.5,1.4-2.3,1.9c-1.1,0.7-1.9,0.3-2.3-0.9c-0.5-1.6-0.2-3.2,0-4.8
		c0-0.2,0.1-0.4,0.1-0.9c-0.5,0.5-0.9,0.8-1.2,1.1c-0.6,0.6-1.2,1.2-1.9,1.8c-1.4,1.2-2.7,0.8-3-1c-0.1-0.7,0-1.4,0.1-2.1
		c0.2-1.3,0.6-2.6,0.9-3.9c0.1-0.2,0.1-0.5,0.2-0.6c0.3-0.3,0.7-0.7,1-0.6c0.6,0.1,0.4,0.6,0.3,1.1c-0.3,1.9-0.7,3.7-1,5.6
		c0,0.3,0.1,0.6,0.2,0.9c0.3-0.1,0.6-0.1,0.9-0.3c1.4-1.3,2.7-2.6,4-3.9c0.2-0.2,0.6-0.3,0.9-0.5c0.1,0.3,0.3,0.6,0.2,0.9
		c-0.2,1.5-0.4,3-0.6,4.5c-0.1,0.9,0,1.9,0,2.8c0.1,0.1,0.2,0.1,0.3,0.2c0.4-0.3,1-0.4,1.3-0.8c1.2-1.3,2.5-2.7,3.6-4.1
		c1.2-1.5,2.3-3.2,3.4-4.8c0.1-0.1,0.2-0.3,0.2-0.5c-0.3-1.8,0.3-3.5,0.9-5.2c0.4-1.3,1-2.5,1.5-3.8c0.2-0.5,0.6-1,1.2-0.8
		c0.3,0.2,0.6,0.8,0.6,1.2c0.1,2.3-0.9,4.4-1.8,6.5c-0.1,0.3-0.3,0.6-0.4,0.9C226.9,46.8,227,46.9,227.1,47z M243.3,40.6
		c-1.5,1.4-2.2,3.2-2.9,5C241.8,44.2,242.9,42.7,243.3,40.6z M226.1,45.8c0.1,0,0.2,0.1,0.2,0.1c0.8-1.9,1.7-3.8,2-5.9
		c-0.1,0-0.2-0.1-0.3-0.1C227.3,41.9,226.7,43.8,226.1,45.8z"/>
	<path class="st0" d="M139,44.1c-1-0.3-1.1-0.7-0.4-1.4c0.3-0.3,0.7-0.6,1.1-0.8c0.2-0.1,0.6-0.2,0.8-0.1c0.2,0.1,0.2,0.5,0.2,0.8
		c-0.4,2.3-1.2,4.5-2.3,6.6c-0.4,0.8-0.9,1.7-1.4,2.7c0.9,0.3,1.7,0.7,2.5,0.8c1.3,0.2,2.5,0.1,3.8,0.2c0.3,0,0.5,0.2,0.8,0.2
		c-0.2,0.2-0.4,0.5-0.6,0.6c-1.9,0.6-3.8,0.2-5.6-0.4c-1.4-0.4-1.4-0.5-2.2,0.7c-2.2,3.2-4.7,6.1-8.2,8c-0.6,0.3-1.2,0.5-1.9,0.6
		c-1.1,0.2-1.9-0.5-1.9-1.6c-0.1-2,0.4-3.9,1.2-5.6c1.5-3.2,3.3-6.3,5-9.4c0.4-0.7,0.5-1.3,0.2-2.1c-1.4-4.5-1.1-9,0.8-13.3
		c0.7-1.6,1.7-3,3-4.2c0.5-0.4,1.1-0.9,1.7-1.1c1.5-0.6,2.6-0.1,3.2,1.5c0.5,1.4,0.2,2.7-0.1,4.1c-0.8,3.5-2.3,6.6-4.1,9.7
		c-0.9,1.5-1.8,3-2.6,4.5c-0.1,0.2-0.2,0.6-0.2,0.8c0.5,1.7,2.5,4.1,4.1,5C137.4,48.8,138.3,46.5,139,44.1z M131.1,44.1
		c0.9-1.5,1.6-2.8,2.4-4.2c1.6-2.9,3.2-5.9,3.9-9.2c0.2-1.1,0.3-2.2,0.3-3.3c-0.1-1.3-0.9-1.6-2.1-1c-0.6,0.4-1.2,0.9-1.7,1.4
		c-1.4,1.5-2.2,3.4-2.8,5.3C129.9,36.8,129.9,40.3,131.1,44.1z M131.1,46.8c-0.7,1.2-1.4,2.2-2,3.3c-1.7,3-3.4,6-4,9.4
		c-0.1,0.6,0,1.3,0,2c0.7-0.2,1.4-0.2,2-0.6c1.3-0.9,2.7-1.9,3.8-3c1.7-1.8,3.1-3.8,4.8-5.8C133.5,50.8,132.3,48.8,131.1,46.8z"/>
	<path class="st0" d="M93.1,42.6c-0.2-0.4-0.4-0.8-0.4-0.9c0.4-0.5,0.8-0.9,1.2-1.3c0.1-0.1,0.5,0,0.6,0.2c0.1,0.2,0.2,0.6,0.1,0.7
		C94.3,41.7,93.8,42.1,93.1,42.6z"/>
	<path class="st0" d="M243.3,40.6c-0.4,2-1.5,3.6-2.9,5C241.1,43.8,241.9,42,243.3,40.6z"/>
</g>
</svg>
